<mxfile host="app.diagrams.net" modified="2023-08-08T06:55:22.570Z" agent="Mozilla/5.0 (Macintosh; Intel Mac OS X 10_15_7) AppleWebKit/537.36 (KHTML, like Gecko) Chrome/115.0.0.0 Safari/537.36 Edg/115.0.1901.188" version="21.6.6" etag="N5tx68uMaz6TKqrru_ul" type="device">
  <diagram name="第 1 页" id="TYu9GU_WrOUl3vz4l-wt">
    <mxGraphModel dx="3191" dy="1828" grid="1" gridSize="10" guides="1" tooltips="1" connect="1" arrows="1" fold="1" page="1" pageScale="1" pageWidth="827" pageHeight="1169" math="0" shadow="0">
      <root>
        <mxCell id="0" />
        <mxCell id="1" parent="0" />
        <mxCell id="YSz8t6bzL7L-mugrMLaR-2" value="DriverQueue" style="swimlane;fontStyle=1;align=center;verticalAlign=top;childLayout=stackLayout;horizontal=1;startSize=26;horizontalStack=0;resizeParent=1;resizeParentMax=0;resizeLast=0;collapsible=1;marginBottom=0;whiteSpace=wrap;html=1;" parent="1" vertex="1">
          <mxGeometry x="155" y="150" width="530" height="182" as="geometry" />
        </mxCell>
        <mxCell id="YSz8t6bzL7L-mugrMLaR-5" value="+ &lt;font color=&quot;#ff0000&quot;&gt;virtual&lt;/font&gt; void &lt;font color=&quot;#0000ff&quot;&gt;put_back&lt;/font&gt;(const DriverRawPtr driver) = 0;" style="text;strokeColor=none;fillColor=none;align=left;verticalAlign=top;spacingLeft=4;spacingRight=4;overflow=hidden;rotatable=0;points=[[0,0.5],[1,0.5]];portConstraint=eastwest;whiteSpace=wrap;html=1;" parent="YSz8t6bzL7L-mugrMLaR-2" vertex="1">
          <mxGeometry y="26" width="530" height="26" as="geometry" />
        </mxCell>
        <mxCell id="2" value="+&amp;nbsp;&lt;span style=&quot;color: rgb(255, 0, 0);&quot;&gt;virtual&lt;/span&gt;&amp;nbsp;void &lt;font color=&quot;#0000ff&quot;&gt;put_back_from_executor&lt;/font&gt;(const DriverRawPtr driver) = 0;" style="text;strokeColor=none;fillColor=none;align=left;verticalAlign=top;spacingLeft=4;spacingRight=4;overflow=hidden;rotatable=0;points=[[0,0.5],[1,0.5]];portConstraint=eastwest;whiteSpace=wrap;html=1;" parent="YSz8t6bzL7L-mugrMLaR-2" vertex="1">
          <mxGeometry y="52" width="530" height="26" as="geometry" />
        </mxCell>
        <mxCell id="3" value="+&amp;nbsp;&lt;span style=&quot;color: rgb(255, 0, 0);&quot;&gt;virtual&lt;/span&gt;&amp;nbsp;StatusOr&amp;lt;DriverRawPtr&amp;gt; &lt;font color=&quot;#0000ff&quot;&gt;take&lt;/font&gt;() = 0;" style="text;strokeColor=none;fillColor=none;align=left;verticalAlign=top;spacingLeft=4;spacingRight=4;overflow=hidden;rotatable=0;points=[[0,0.5],[1,0.5]];portConstraint=eastwest;whiteSpace=wrap;html=1;" parent="YSz8t6bzL7L-mugrMLaR-2" vertex="1">
          <mxGeometry y="78" width="530" height="26" as="geometry" />
        </mxCell>
        <mxCell id="4" value="+&amp;nbsp;&lt;span style=&quot;color: rgb(255, 0, 0);&quot;&gt;virtual&lt;/span&gt;&amp;nbsp;void &lt;font color=&quot;#0000ff&quot;&gt;cancel&lt;/font&gt;(DriverRawPtr driver) = 0;" style="text;strokeColor=none;fillColor=none;align=left;verticalAlign=top;spacingLeft=4;spacingRight=4;overflow=hidden;rotatable=0;points=[[0,0.5],[1,0.5]];portConstraint=eastwest;whiteSpace=wrap;html=1;" parent="YSz8t6bzL7L-mugrMLaR-2" vertex="1">
          <mxGeometry y="104" width="530" height="26" as="geometry" />
        </mxCell>
        <mxCell id="5" value="+&amp;nbsp;&lt;span style=&quot;color: rgb(255, 0, 0);&quot;&gt;virtual&lt;/span&gt;&amp;nbsp;void &lt;font color=&quot;#0000ff&quot;&gt;update_statistics&lt;/font&gt;(const DriverRawPtr driver) = 0;" style="text;strokeColor=none;fillColor=none;align=left;verticalAlign=top;spacingLeft=4;spacingRight=4;overflow=hidden;rotatable=0;points=[[0,0.5],[1,0.5]];portConstraint=eastwest;whiteSpace=wrap;html=1;" parent="YSz8t6bzL7L-mugrMLaR-2" vertex="1">
          <mxGeometry y="130" width="530" height="26" as="geometry" />
        </mxCell>
        <mxCell id="6" value="+&amp;nbsp;&lt;span style=&quot;color: rgb(255, 0, 0);&quot;&gt;virtual&lt;/span&gt;&amp;nbsp;bool &lt;font color=&quot;#0000ff&quot;&gt;should_yield&lt;/font&gt;(const DriverRawPtr driver, int64_t unaccounted_runtime_ns) const = 0;" style="text;strokeColor=none;fillColor=none;align=left;verticalAlign=top;spacingLeft=4;spacingRight=4;overflow=hidden;rotatable=0;points=[[0,0.5],[1,0.5]];portConstraint=eastwest;whiteSpace=wrap;html=1;" parent="YSz8t6bzL7L-mugrMLaR-2" vertex="1">
          <mxGeometry y="156" width="530" height="26" as="geometry" />
        </mxCell>
        <mxCell id="SipAzLuQ_n8lHaZQnzTu-35" style="edgeStyle=orthogonalEdgeStyle;rounded=0;orthogonalLoop=1;jettySize=auto;html=1;exitX=0.5;exitY=0;exitDx=0;exitDy=0;entryX=0.461;entryY=0.99;entryDx=0;entryDy=0;entryPerimeter=0;strokeWidth=2;" edge="1" parent="1" source="SipAzLuQ_n8lHaZQnzTu-6" target="6">
          <mxGeometry relative="1" as="geometry" />
        </mxCell>
        <mxCell id="SipAzLuQ_n8lHaZQnzTu-6" value="QuerySharedDriverQueue" style="swimlane;fontStyle=1;align=center;verticalAlign=top;childLayout=stackLayout;horizontal=1;startSize=26;horizontalStack=0;resizeParent=1;resizeParentMax=0;resizeLast=0;collapsible=1;marginBottom=0;whiteSpace=wrap;html=1;" vertex="1" parent="1">
          <mxGeometry x="26" y="490" width="330" height="156" as="geometry" />
        </mxCell>
        <mxCell id="SipAzLuQ_n8lHaZQnzTu-7" value="+ &lt;font color=&quot;#0000ff&quot;&gt;_queues[QUEUE_SIZE]&lt;/font&gt;:&amp;nbsp;SubQuerySharedDriverQueue[]" style="text;strokeColor=none;fillColor=none;align=left;verticalAlign=top;spacingLeft=4;spacingRight=4;overflow=hidden;rotatable=0;points=[[0,0.5],[1,0.5]];portConstraint=eastwest;whiteSpace=wrap;html=1;" vertex="1" parent="SipAzLuQ_n8lHaZQnzTu-6">
          <mxGeometry y="26" width="330" height="26" as="geometry" />
        </mxCell>
        <mxCell id="SipAzLuQ_n8lHaZQnzTu-10" value="+ _level_time_slices[QUEUE_SIZE]: int[]" style="text;strokeColor=none;fillColor=none;align=left;verticalAlign=top;spacingLeft=4;spacingRight=4;overflow=hidden;rotatable=0;points=[[0,0.5],[1,0.5]];portConstraint=eastwest;whiteSpace=wrap;html=1;" vertex="1" parent="SipAzLuQ_n8lHaZQnzTu-6">
          <mxGeometry y="52" width="330" height="26" as="geometry" />
        </mxCell>
        <mxCell id="SipAzLuQ_n8lHaZQnzTu-11" value="+ _num_drivers: uint64_t&amp;nbsp;" style="text;strokeColor=none;fillColor=none;align=left;verticalAlign=top;spacingLeft=4;spacingRight=4;overflow=hidden;rotatable=0;points=[[0,0.5],[1,0.5]];portConstraint=eastwest;whiteSpace=wrap;html=1;" vertex="1" parent="SipAzLuQ_n8lHaZQnzTu-6">
          <mxGeometry y="78" width="330" height="26" as="geometry" />
        </mxCell>
        <mxCell id="SipAzLuQ_n8lHaZQnzTu-12" value="+ _global_mutex:&amp;nbsp;std::mutex" style="text;strokeColor=none;fillColor=none;align=left;verticalAlign=top;spacingLeft=4;spacingRight=4;overflow=hidden;rotatable=0;points=[[0,0.5],[1,0.5]];portConstraint=eastwest;whiteSpace=wrap;html=1;" vertex="1" parent="SipAzLuQ_n8lHaZQnzTu-6">
          <mxGeometry y="104" width="330" height="26" as="geometry" />
        </mxCell>
        <mxCell id="SipAzLuQ_n8lHaZQnzTu-18" value="+ _cv:&amp;nbsp;std::condition_variable" style="text;strokeColor=none;fillColor=none;align=left;verticalAlign=top;spacingLeft=4;spacingRight=4;overflow=hidden;rotatable=0;points=[[0,0.5],[1,0.5]];portConstraint=eastwest;whiteSpace=wrap;html=1;" vertex="1" parent="SipAzLuQ_n8lHaZQnzTu-6">
          <mxGeometry y="130" width="330" height="26" as="geometry" />
        </mxCell>
        <mxCell id="SipAzLuQ_n8lHaZQnzTu-19" style="edgeStyle=orthogonalEdgeStyle;rounded=0;orthogonalLoop=1;jettySize=auto;html=1;exitX=1;exitY=0.5;exitDx=0;exitDy=0;" edge="1" parent="SipAzLuQ_n8lHaZQnzTu-6" source="SipAzLuQ_n8lHaZQnzTu-10" target="SipAzLuQ_n8lHaZQnzTu-10">
          <mxGeometry relative="1" as="geometry" />
        </mxCell>
        <mxCell id="SipAzLuQ_n8lHaZQnzTu-36" style="edgeStyle=orthogonalEdgeStyle;rounded=0;orthogonalLoop=1;jettySize=auto;html=1;exitX=0.5;exitY=0;exitDx=0;exitDy=0;entryX=0.459;entryY=0.99;entryDx=0;entryDy=0;entryPerimeter=0;strokeWidth=2;" edge="1" parent="1" source="SipAzLuQ_n8lHaZQnzTu-25" target="6">
          <mxGeometry relative="1" as="geometry" />
        </mxCell>
        <mxCell id="SipAzLuQ_n8lHaZQnzTu-25" value="WorkGroupDriverQueue" style="swimlane;fontStyle=1;align=center;verticalAlign=top;childLayout=stackLayout;horizontal=1;startSize=26;horizontalStack=0;resizeParent=1;resizeParentMax=0;resizeLast=0;collapsible=1;marginBottom=0;whiteSpace=wrap;html=1;" vertex="1" parent="1">
          <mxGeometry x="396" y="490" width="410" height="208" as="geometry" />
        </mxCell>
        <mxCell id="SipAzLuQ_n8lHaZQnzTu-26" value="+ &lt;font color=&quot;#0000ff&quot;&gt;_wg_entities&lt;/font&gt;: WorkgroupSet" style="text;strokeColor=none;fillColor=none;align=left;verticalAlign=top;spacingLeft=4;spacingRight=4;overflow=hidden;rotatable=0;points=[[0,0.5],[1,0.5]];portConstraint=eastwest;whiteSpace=wrap;html=1;" vertex="1" parent="SipAzLuQ_n8lHaZQnzTu-25">
          <mxGeometry y="26" width="410" height="26" as="geometry" />
        </mxCell>
        <mxCell id="SipAzLuQ_n8lHaZQnzTu-27" value="+ _sum_cpu_limit: uint64_t" style="text;strokeColor=none;fillColor=none;align=left;verticalAlign=top;spacingLeft=4;spacingRight=4;overflow=hidden;rotatable=0;points=[[0,0.5],[1,0.5]];portConstraint=eastwest;whiteSpace=wrap;html=1;" vertex="1" parent="SipAzLuQ_n8lHaZQnzTu-25">
          <mxGeometry y="52" width="410" height="26" as="geometry" />
        </mxCell>
        <mxCell id="SipAzLuQ_n8lHaZQnzTu-28" value="+ _min_wg_entity:&amp;nbsp;std::atomic&amp;lt;workgroup::WorkGroupDriverSchedEntity*&amp;gt;" style="text;strokeColor=none;fillColor=none;align=left;verticalAlign=top;spacingLeft=4;spacingRight=4;overflow=hidden;rotatable=0;points=[[0,0.5],[1,0.5]];portConstraint=eastwest;whiteSpace=wrap;html=1;" vertex="1" parent="SipAzLuQ_n8lHaZQnzTu-25">
          <mxGeometry y="78" width="410" height="26" as="geometry" />
        </mxCell>
        <mxCell id="SipAzLuQ_n8lHaZQnzTu-32" value="+ _bandwidth_control_period_end_ns: int64_t&amp;nbsp;" style="text;strokeColor=none;fillColor=none;align=left;verticalAlign=top;spacingLeft=4;spacingRight=4;overflow=hidden;rotatable=0;points=[[0,0.5],[1,0.5]];portConstraint=eastwest;whiteSpace=wrap;html=1;" vertex="1" parent="SipAzLuQ_n8lHaZQnzTu-25">
          <mxGeometry y="104" width="410" height="26" as="geometry" />
        </mxCell>
        <mxCell id="SipAzLuQ_n8lHaZQnzTu-33" value="+ _bandwidth_usage_ns: std::atomic&amp;lt;int64_t&amp;gt;&amp;nbsp;" style="text;strokeColor=none;fillColor=none;align=left;verticalAlign=top;spacingLeft=4;spacingRight=4;overflow=hidden;rotatable=0;points=[[0,0.5],[1,0.5]];portConstraint=eastwest;whiteSpace=wrap;html=1;" vertex="1" parent="SipAzLuQ_n8lHaZQnzTu-25">
          <mxGeometry y="130" width="410" height="26" as="geometry" />
        </mxCell>
        <mxCell id="SipAzLuQ_n8lHaZQnzTu-29" value="+ _global_mutex:&amp;nbsp;std::mutex" style="text;strokeColor=none;fillColor=none;align=left;verticalAlign=top;spacingLeft=4;spacingRight=4;overflow=hidden;rotatable=0;points=[[0,0.5],[1,0.5]];portConstraint=eastwest;whiteSpace=wrap;html=1;" vertex="1" parent="SipAzLuQ_n8lHaZQnzTu-25">
          <mxGeometry y="156" width="410" height="26" as="geometry" />
        </mxCell>
        <mxCell id="SipAzLuQ_n8lHaZQnzTu-30" value="+ _cv:&amp;nbsp;std::condition_variable" style="text;strokeColor=none;fillColor=none;align=left;verticalAlign=top;spacingLeft=4;spacingRight=4;overflow=hidden;rotatable=0;points=[[0,0.5],[1,0.5]];portConstraint=eastwest;whiteSpace=wrap;html=1;" vertex="1" parent="SipAzLuQ_n8lHaZQnzTu-25">
          <mxGeometry y="182" width="410" height="26" as="geometry" />
        </mxCell>
        <mxCell id="SipAzLuQ_n8lHaZQnzTu-31" style="edgeStyle=orthogonalEdgeStyle;rounded=0;orthogonalLoop=1;jettySize=auto;html=1;exitX=1;exitY=0.5;exitDx=0;exitDy=0;" edge="1" parent="SipAzLuQ_n8lHaZQnzTu-25" source="SipAzLuQ_n8lHaZQnzTu-27" target="SipAzLuQ_n8lHaZQnzTu-27">
          <mxGeometry relative="1" as="geometry" />
        </mxCell>
      </root>
    </mxGraphModel>
  </diagram>
</mxfile>
